<?xml version="1.0" encoding="UTF-8" standalone="no"?>
<!-- Created with Inkscape (http://www.inkscape.org/) -->

<svg
   width="512.0px"
   height="512.0px"
   viewBox="0 0 512.0 512.0"
   version="1.1"
   id="SVGRoot"
   sodipodi:docname="icon-v2-notrunning.svg"
   inkscape:version="1.2.2 (1:1.2.2+202212051552+b0a8486541)"
   inkscape:export-filename="icon-v2-notrunning.png"
   inkscape:export-xdpi="96"
   inkscape:export-ydpi="96"
   xmlns:inkscape="http://www.inkscape.org/namespaces/inkscape"
   xmlns:sodipodi="http://sodipodi.sourceforge.net/DTD/sodipodi-0.dtd"
   xmlns:xlink="http://www.w3.org/1999/xlink"
   xmlns="http://www.w3.org/2000/svg"
   xmlns:svg="http://www.w3.org/2000/svg">
  <sodipodi:namedview
     id="namedview412"
     pagecolor="#505050"
     bordercolor="#ffffff"
     borderopacity="1"
     inkscape:showpageshadow="0"
     inkscape:pageopacity="0"
     inkscape:pagecheckerboard="1"
     inkscape:deskcolor="#505050"
     inkscape:document-units="px"
     showgrid="false"
     inkscape:zoom="1.4142136"
     inkscape:cx="125.865"
     inkscape:cy="262.69016"
     inkscape:window-width="1920"
     inkscape:window-height="1007"
     inkscape:window-x="1920"
     inkscape:window-y="40"
     inkscape:window-maximized="1"
     inkscape:current-layer="layer1">
    <inkscape:grid
       type="xygrid"
       id="grid542" />
  </sodipodi:namedview>
  <defs
     id="defs407">
    <linearGradient
       inkscape:collect="always"
       id="linearGradient1539">
      <stop
         style="stop-color:#1b4315;stop-opacity:1;"
         offset="0.32145345"
         id="stop1535" />
      <stop
         style="stop-color:#4cc84a;stop-opacity:1;"
         offset="1"
         id="stop1537" />
    </linearGradient>
    <symbol
       viewBox="0 0 24 24"
       id="ic_watch_later_24px">
      <path
         d="M 12,2 C 6.5,2 2,6.5 2,12 2,17.5 6.5,22 12,22 17.5,22 22,17.5 22,12 22,6.5 17.5,2 12,2 Z M 16.2,16.2 11,13 V 7 h 1.5 v 5.2 l 4.5,2.7 z"
         id="path101263" />
    </symbol>
    <symbol
       viewBox="0 0 24 24"
       id="ic_query_builder_24px">
      <path
         d="M 11.99,2 C 6.47,2 2,6.48 2,12 2,17.52 6.47,22 11.99,22 17.52,22 22,17.52 22,12 22,6.48 17.52,2 11.99,2 Z M 12,20 C 7.58,20 4,16.42 4,12 4,7.58 7.58,4 12,4 c 4.42,0 8,3.58 8,8 0,4.42 -3.58,8 -8,8 z M 12.5,7 H 11 v 6 l 5.25,3.15 0.75,-1.23 -4.5,-2.67 z"
         id="path101021" />
    </symbol>
    <linearGradient
       inkscape:collect="always"
       xlink:href="#linearGradient1539"
       id="linearGradient1557"
       x1="-0.50546002"
       y1="512.50543"
       x2="512.50543"
       y2="-0.50546002"
       gradientUnits="userSpaceOnUse"
       spreadMethod="pad" />
    <filter
       style="color-interpolation-filters:sRGB;"
       inkscape:label="Drop Shadow"
       id="filter6746"
       x="-0.011921763"
       y="-0.011921821"
       width="1.0312946"
       height="1.0362622">
      <feFlood
         flood-opacity="0.498039"
         flood-color="rgb(0,0,0)"
         result="flood"
         id="feFlood6736" />
      <feComposite
         in="flood"
         in2="SourceGraphic"
         operator="in"
         result="composite1"
         id="feComposite6738" />
      <feGaussianBlur
         in="composite1"
         stdDeviation="2"
         result="blur"
         id="feGaussianBlur6740" />
      <feOffset
         dx="3"
         dy="5"
         result="offset"
         id="feOffset6742" />
      <feComposite
         in="SourceGraphic"
         in2="offset"
         operator="over"
         result="composite2"
         id="feComposite6744" />
    </filter>
    <symbol
       viewBox="0 0 24 24"
       id="ic_done_all_24px">
      <path
         d="m 18,7 -1.41,-1.41 -6.34,6.34 1.41,1.41 z M 22.24,5.59 11.66,16.17 7.48,12 6.07,13.41 11.66,19 23.66,7 Z M 0.41,13.41 6,19 7.41,17.59 1.83,12 Z"
         id="path3309" />
    </symbol>
    <filter
       style="color-interpolation-filters:sRGB;"
       inkscape:label="Drop Shadow"
       id="filter7608"
       x="-0.013129662"
       y="-0.022763954"
       width="1.0372007"
       height="1.0644979">
      <feFlood
         flood-opacity="0.498039"
         flood-color="rgb(0,0,0)"
         result="flood"
         id="feFlood7598" />
      <feComposite
         in="flood"
         in2="SourceGraphic"
         operator="in"
         result="composite1"
         id="feComposite7600" />
      <feGaussianBlur
         in="composite1"
         stdDeviation="2"
         result="blur"
         id="feGaussianBlur7602" />
      <feOffset
         dx="4"
         dy="4"
         result="offset"
         id="feOffset7604" />
      <feComposite
         in="SourceGraphic"
         in2="offset"
         operator="over"
         result="composite2"
         id="feComposite7606" />
    </filter>
  </defs>
  <g
     inkscape:label="Background"
     inkscape:groupmode="layer"
     id="layer1"
     style="display:inline">
    <rect
       style="fill:url(#linearGradient1557);fill-opacity:1;stroke:none;stroke-width:1.011;stroke-linecap:butt;stroke-linejoin:round;stroke-dasharray:none;stroke-opacity:1;paint-order:normal"
       id="rect601"
       width="512"
       height="512"
       x="0"
       y="0"
       ry="72.75457" />
  </g>
  <g
     inkscape:groupmode="layer"
     id="layer2"
     inkscape:label="Checks">
    <path
       d="m 355.91856,172.74109 -22.17093,-22.17093 -99.69055,99.69056 22.17093,22.17093 z M 422.58858,150.57016 256.22801,316.93074 190.50143,251.3614 168.3305,273.53233 256.22801,361.42984 444.91675,172.74109 Z M 79.332309,273.53233 167.22982,361.42984 189.40074,339.25891 101.66048,251.3614 Z"
       id="path6641"
       style="mix-blend-mode:normal;fill:#ffffff;fill-opacity:1;stroke:none;stroke-width:15.7241;filter:url(#filter7608)" />
  </g>
</svg>
