<?xml version="1.0" encoding="UTF-8" standalone="no"?>
<!-- Created with Inkscape (http://www.inkscape.org/) -->

<svg
   width="512.0px"
   height="512.0px"
   viewBox="0 0 512.0 512.0"
   version="1.1"
   id="SVGRoot"
   sodipodi:docname="icon-v2-running.svg"
   inkscape:version="1.2.2 (1:1.2.2+202212051552+b0a8486541)"
   inkscape:export-filename="icon-v2-running.png"
   inkscape:export-xdpi="96"
   inkscape:export-ydpi="96"
   xmlns:inkscape="http://www.inkscape.org/namespaces/inkscape"
   xmlns:sodipodi="http://sodipodi.sourceforge.net/DTD/sodipodi-0.dtd"
   xmlns:xlink="http://www.w3.org/1999/xlink"
   xmlns="http://www.w3.org/2000/svg"
   xmlns:svg="http://www.w3.org/2000/svg">
  <sodipodi:namedview
     id="namedview412"
     pagecolor="#505050"
     bordercolor="#ffffff"
     borderopacity="1"
     inkscape:showpageshadow="0"
     inkscape:pageopacity="0"
     inkscape:pagecheckerboard="1"
     inkscape:deskcolor="#505050"
     inkscape:document-units="px"
     showgrid="false"
     inkscape:zoom="1.4142136"
     inkscape:cx="125.865"
     inkscape:cy="262.69016"
     inkscape:window-width="1920"
     inkscape:window-height="1007"
     inkscape:window-x="1920"
     inkscape:window-y="40"
     inkscape:window-maximized="1"
     inkscape:current-layer="layer1">
    <inkscape:grid
       type="xygrid"
       id="grid542" />
  </sodipodi:namedview>
  <defs
     id="defs407">
    <linearGradient
       inkscape:collect="always"
       id="linearGradient1539">
      <stop
         style="stop-color:#53561b;stop-opacity:1;"
         offset="0.23607326"
         id="stop1535" />
      <stop
         style="stop-color:#e6ff13;stop-opacity:1;"
         offset="1"
         id="stop1537" />
    </linearGradient>
    <symbol
       viewBox="0 0 24 24"
       id="ic_watch_later_24px">
      <path
         d="M 12,2 C 6.5,2 2,6.5 2,12 2,17.5 6.5,22 12,22 17.5,22 22,17.5 22,12 22,6.5 17.5,2 12,2 Z M 16.2,16.2 11,13 V 7 h 1.5 v 5.2 l 4.5,2.7 z"
         id="path101263" />
    </symbol>
    <symbol
       viewBox="0 0 24 24"
       id="ic_query_builder_24px">
      <path
         d="M 11.99,2 C 6.47,2 2,6.48 2,12 2,17.52 6.47,22 11.99,22 17.52,22 22,17.52 22,12 22,6.48 17.52,2 11.99,2 Z M 12,20 C 7.58,20 4,16.42 4,12 4,7.58 7.58,4 12,4 c 4.42,0 8,3.58 8,8 0,4.42 -3.58,8 -8,8 z M 12.5,7 H 11 v 6 l 5.25,3.15 0.75,-1.23 -4.5,-2.67 z"
         id="path101021" />
    </symbol>
    <linearGradient
       inkscape:collect="always"
       xlink:href="#linearGradient1539"
       id="linearGradient1557"
       x1="-0.50546002"
       y1="512.50543"
       x2="512.50543"
       y2="-0.50546002"
       gradientUnits="userSpaceOnUse"
       spreadMethod="pad" />
    <filter
       style="color-interpolation-filters:sRGB;"
       inkscape:label="Drop Shadow"
       id="filter6746"
       x="-0.011921763"
       y="-0.011921821"
       width="1.0312946"
       height="1.0362622">
      <feFlood
         flood-opacity="0.498039"
         flood-color="rgb(0,0,0)"
         result="flood"
         id="feFlood6736" />
      <feComposite
         in="flood"
         in2="SourceGraphic"
         operator="in"
         result="composite1"
         id="feComposite6738" />
      <feGaussianBlur
         in="composite1"
         stdDeviation="2"
         result="blur"
         id="feGaussianBlur6740" />
      <feOffset
         dx="3"
         dy="5"
         result="offset"
         id="feOffset6742" />
      <feComposite
         in="SourceGraphic"
         in2="offset"
         operator="over"
         result="composite2"
         id="feComposite6744" />
    </filter>
    <symbol
       viewBox="0 0 24 24"
       id="ic_done_all_24px">
      <path
         d="m 18,7 -1.41,-1.41 -6.34,6.34 1.41,1.41 z M 22.24,5.59 11.66,16.17 7.48,12 6.07,13.41 11.66,19 23.66,7 Z M 0.41,13.41 6,19 7.41,17.59 1.83,12 Z"
         id="path3309" />
    </symbol>
    <filter
       style="color-interpolation-filters:sRGB;"
       inkscape:label="Drop Shadow"
       id="filter7608"
       x="-0.013129662"
       y="-0.022763954"
       width="1.0372007"
       height="1.0644979">
      <feFlood
         flood-opacity="0.498039"
         flood-color="rgb(0,0,0)"
         result="flood"
         id="feFlood7598" />
      <feComposite
         in="flood"
         in2="SourceGraphic"
         operator="in"
         result="composite1"
         id="feComposite7600" />
      <feGaussianBlur
         in="composite1"
         stdDeviation="2"
         result="blur"
         id="feGaussianBlur7602" />
      <feOffset
         dx="4"
         dy="4"
         result="offset"
         id="feOffset7604" />
      <feComposite
         in="SourceGraphic"
         in2="offset"
         operator="over"
         result="composite2"
         id="feComposite7606" />
    </filter>
    <symbol
       viewBox="0 0 64 64"
       id="emoji-23f3">
      <title
         id="title74924">23f3</title>
      <path
         fill="#e5e5e5"
         d="m 36.897,33.558 c -1.619,-0.512 -2.6,-0.707 -2.6,-1.558 0,-0.849 0.98,-1.046 2.6,-1.556 C 45.644,27.971 48.124,21.656 48.124,11 h -32.25 c 0,10.656 2.48,16.97 11.227,19.442 1.619,0.512 2.6,0.709 2.6,1.558 0,0.851 -0.98,1.046 -2.598,1.558 C 18.354,36.031 15.874,42.345 15.874,53 h 32.25 c 0,-10.655 -2.48,-16.97 -11.227,-19.442"
         id="path74926" />
      <path
         fill="#f5f5f5"
         d="M 35.513,33.558 C 34.353,33.046 33.65,32.851 33.65,32 c 0,-0.849 0.703,-1.046 1.863,-1.556 C 41.788,27.97 42.437,21.656 42.437,11 H 21.562 c 0,10.656 0.648,16.97 6.924,19.442 1.16,0.512 1.865,0.709 1.865,1.558 0,0.851 -0.705,1.046 -1.865,1.558 C 22.21,36.031 21.562,42.345 21.562,53 h 20.875 c 0,-10.655 -0.649,-16.97 -6.924,-19.442"
         id="path74928" />
      <path
         fill="#428bc1"
         d="m 32.948,52.998 c 0,0 -0.559,-17.909 -0.559,-20.998 0,-0.838 1.584,-2.01 2.313,-2.432 3.076,-1.775 7.03,-5.288 7.03,-8.944 H 22.264 c 0,3.656 3.955,7.169 7.03,8.944 0.727,0.42 2.313,1.594 2.313,2.432 0,3.17 -0.559,20.998 -0.559,20.998 h 1.898"
         id="path74930" />
      <g
         fill="#212528"
         id="g74936">
        <path
           d="m 55.999,62.04 c 0,1.08 -0.828,1.956 -1.852,1.956 h -44.3 c -1.023,0 -1.852,-0.876 -1.852,-1.956 v -3.088 c 0,-1.08 0.828,-1.956 1.852,-1.956 h 44.3 c 1.023,0 1.852,0.876 1.852,1.956 v 3.088"
           id="path74932" />
        <path
           d="m 49.999,10.2 c 0,0.442 -0.395,0.8 -0.879,0.8 H 14.88 c -0.486,0 -0.881,-0.357 -0.881,-0.8 V 7.8 C 13.999,7.359 14.394,7 14.88,7 h 34.24 c 0.484,0 0.879,0.358 0.879,0.8 v 2.4"
           id="path74934" />
      </g>
      <path
         fill="#51575b"
         d="m 44.999,10.2 c 0,0.442 -0.305,0.8 -0.68,0.8 h -24.64 c -0.375,0 -0.68,-0.357 -0.68,-0.8 V 7.8 c 0,-0.441 0.305,-0.8 0.68,-0.8 H 44.32 C 44.695,7 45,7.358 45,7.8 v 2.4"
         id="path74938" />
      <g
         fill="#212528"
         id="g74944">
        <path
           d="m 49.999,56.2 c 0,0.441 -0.395,0.8 -0.879,0.8 H 14.88 c -0.486,0 -0.881,-0.358 -0.881,-0.8 v -2.4 c 0,-0.441 0.395,-0.8 0.881,-0.8 h 34.24 c 0.484,0 0.879,0.358 0.879,0.8 v 2.4"
           id="path74940" />
        <path
           d="m 55.999,5.04 c 0,1.08 -0.828,1.956 -1.852,1.956 H 9.847 C 8.823,6.996 7.995,6.12 7.995,5.04 V 1.952 c 0,-1.081 0.828,-1.956 1.852,-1.956 h 44.3 c 1.023,0 1.852,0.875 1.852,1.956 V 5.04"
           id="path74942" />
      </g>
      <g
         fill="#51575b"
         id="g74950">
        <path
           d="m 49.999,5.04 c 0,1.08 -0.65,1.956 -1.453,1.956 H 15.456 C 14.653,6.996 14.001,6.12 14.001,5.04 V 1.952 c 0,-1.08 0.652,-1.956 1.455,-1.956 h 33.09 c 0.803,0 1.453,0.875 1.453,1.956 V 5.04"
           id="path74946" />
        <path
           d="m 49.999,62.04 c 0,1.08 -0.65,1.956 -1.453,1.956 h -33.09 c -0.803,0 -1.455,-0.876 -1.455,-1.956 v -3.088 c 0,-1.08 0.652,-1.956 1.455,-1.956 h 33.09 c 0.803,0 1.453,0.876 1.453,1.956 v 3.088"
           id="path74948" />
      </g>
      <path
         fill="#919191"
         d="m 11.999,7 h 1 v 50 h -1 z"
         id="path74952" />
      <path
         fill="#cecece"
         d="m 10.999,7 h 1 v 50 h -1 z"
         id="path74954" />
      <path
         fill="#919191"
         d="m 51.999,7 h 1 v 50 h -1 z"
         id="path74956" />
      <path
         fill="#cecece"
         d="m 50.999,7 h 1 v 50 h -1 z"
         id="path74958" />
      <path
         fill="#51575b"
         d="m 44.999,56.2 c 0,0.441 -0.305,0.8 -0.68,0.8 h -24.64 c -0.375,0 -0.68,-0.358 -0.68,-0.8 v -2.4 c 0,-0.441 0.305,-0.8 0.68,-0.8 H 44.32 c 0.375,0 0.68,0.358 0.68,0.8 v 2.4"
         id="path74960" />
    </symbol>
    <filter
       style="color-interpolation-filters:sRGB;"
       inkscape:label="Drop Shadow"
       id="filter140489"
       x="-0.049995834"
       y="-0.0375"
       width="1.1416549"
       height="1.10625">
      <feFlood
         flood-opacity="0.498039"
         flood-color="rgb(0,0,0)"
         result="flood"
         id="feFlood140479" />
      <feComposite
         in="flood"
         in2="SourceGraphic"
         operator="in"
         result="composite1"
         id="feComposite140481" />
      <feGaussianBlur
         in="composite1"
         stdDeviation="1"
         result="blur"
         id="feGaussianBlur140483" />
      <feOffset
         dx="2"
         dy="2"
         result="offset"
         id="feOffset140485" />
      <feComposite
         in="SourceGraphic"
         in2="offset"
         operator="over"
         result="composite2"
         id="feComposite140487" />
    </filter>
  </defs>
  <g
     inkscape:label="Background"
     inkscape:groupmode="layer"
     id="layer1"
     style="display:inline">
    <rect
       style="fill:url(#linearGradient1557);fill-opacity:1;stroke:none;stroke-width:1.011;stroke-linecap:butt;stroke-linejoin:round;stroke-dasharray:none;stroke-opacity:1;paint-order:normal"
       id="rect601"
       width="512"
       height="512"
       x="0"
       y="0"
       ry="72.75457" />
  </g>
  <g
     inkscape:groupmode="layer"
     id="layer3"
     inkscape:label="Hourglass">
    <g
       id="use140281"
       transform="matrix(6.2316341,0,0,6.2316341,56.606404,56.612636)"
       style="filter:url(#filter140489)">
      <title
         id="title140403">23f3</title>
      <path
         fill="#e5e5e5"
         d="m 36.897,33.558 c -1.619,-0.512 -2.6,-0.707 -2.6,-1.558 0,-0.849 0.98,-1.046 2.6,-1.556 C 45.644,27.971 48.124,21.656 48.124,11 h -32.25 c 0,10.656 2.48,16.97 11.227,19.442 1.619,0.512 2.6,0.709 2.6,1.558 0,0.851 -0.98,1.046 -2.598,1.558 C 18.354,36.031 15.874,42.345 15.874,53 h 32.25 c 0,-10.655 -2.48,-16.97 -11.227,-19.442"
         id="path140405" />
      <path
         fill="#f5f5f5"
         d="M 35.513,33.558 C 34.353,33.046 33.65,32.851 33.65,32 c 0,-0.849 0.703,-1.046 1.863,-1.556 C 41.788,27.97 42.437,21.656 42.437,11 H 21.562 c 0,10.656 0.648,16.97 6.924,19.442 1.16,0.512 1.865,0.709 1.865,1.558 0,0.851 -0.705,1.046 -1.865,1.558 C 22.21,36.031 21.562,42.345 21.562,53 h 20.875 c 0,-10.655 -0.649,-16.97 -6.924,-19.442"
         id="path140407" />
      <path
         fill="#428bc1"
         d="m 32.948,52.998 c 0,0 -0.559,-17.909 -0.559,-20.998 0,-0.838 1.584,-2.01 2.313,-2.432 3.076,-1.775 7.03,-5.288 7.03,-8.944 H 22.264 c 0,3.656 3.955,7.169 7.03,8.944 0.727,0.42 2.313,1.594 2.313,2.432 0,3.17 -0.559,20.998 -0.559,20.998 h 1.898"
         id="path140409" />
      <g
         fill="#212528"
         id="g140415">
        <path
           d="m 55.999,62.04 c 0,1.08 -0.828,1.956 -1.852,1.956 h -44.3 c -1.023,0 -1.852,-0.876 -1.852,-1.956 v -3.088 c 0,-1.08 0.828,-1.956 1.852,-1.956 h 44.3 c 1.023,0 1.852,0.876 1.852,1.956 v 3.088"
           id="path140411" />
        <path
           d="m 49.999,10.2 c 0,0.442 -0.395,0.8 -0.879,0.8 H 14.88 c -0.486,0 -0.881,-0.357 -0.881,-0.8 V 7.8 C 13.999,7.359 14.394,7 14.88,7 h 34.24 c 0.484,0 0.879,0.358 0.879,0.8 v 2.4"
           id="path140413" />
      </g>
      <path
         fill="#51575b"
         d="m 44.999,10.2 c 0,0.442 -0.305,0.8 -0.68,0.8 h -24.64 c -0.375,0 -0.68,-0.357 -0.68,-0.8 V 7.8 c 0,-0.441 0.305,-0.8 0.68,-0.8 H 44.32 C 44.695,7 45,7.358 45,7.8 v 2.4"
         id="path140417" />
      <g
         fill="#212528"
         id="g140423">
        <path
           d="m 49.999,56.2 c 0,0.441 -0.395,0.8 -0.879,0.8 H 14.88 c -0.486,0 -0.881,-0.358 -0.881,-0.8 v -2.4 c 0,-0.441 0.395,-0.8 0.881,-0.8 h 34.24 c 0.484,0 0.879,0.358 0.879,0.8 v 2.4"
           id="path140419" />
        <path
           d="m 55.999,5.04 c 0,1.08 -0.828,1.956 -1.852,1.956 H 9.847 C 8.823,6.996 7.995,6.12 7.995,5.04 V 1.952 c 0,-1.081 0.828,-1.956 1.852,-1.956 h 44.3 c 1.023,0 1.852,0.875 1.852,1.956 V 5.04"
           id="path140421" />
      </g>
      <g
         fill="#51575b"
         id="g140429">
        <path
           d="m 49.999,5.04 c 0,1.08 -0.65,1.956 -1.453,1.956 H 15.456 C 14.653,6.996 14.001,6.12 14.001,5.04 V 1.952 c 0,-1.08 0.652,-1.956 1.455,-1.956 h 33.09 c 0.803,0 1.453,0.875 1.453,1.956 V 5.04"
           id="path140425" />
        <path
           d="m 49.999,62.04 c 0,1.08 -0.65,1.956 -1.453,1.956 h -33.09 c -0.803,0 -1.455,-0.876 -1.455,-1.956 v -3.088 c 0,-1.08 0.652,-1.956 1.455,-1.956 h 33.09 c 0.803,0 1.453,0.876 1.453,1.956 v 3.088"
           id="path140427" />
      </g>
      <path
         fill="#919191"
         d="m 11.999,7 h 1 v 50 h -1 z"
         id="path140431" />
      <path
         fill="#cecece"
         d="m 10.999,7 h 1 v 50 h -1 z"
         id="path140433" />
      <path
         fill="#919191"
         d="m 51.999,7 h 1 v 50 h -1 z"
         id="path140435" />
      <path
         fill="#cecece"
         d="m 50.999,7 h 1 v 50 h -1 z"
         id="path140437" />
      <path
         fill="#51575b"
         d="m 44.999,56.2 c 0,0.441 -0.305,0.8 -0.68,0.8 h -24.64 c -0.375,0 -0.68,-0.358 -0.68,-0.8 v -2.4 c 0,-0.441 0.305,-0.8 0.68,-0.8 H 44.32 c 0.375,0 0.68,0.358 0.68,0.8 v 2.4"
         id="path140439" />
    </g>
  </g>
</svg>
